<?xml version="1.0" standalone="no"?>
<!DOCTYPE svg PUBLIC "-//W3C//DTD SVG 20010904//EN"
 "http://www.w3.org/TR/2001/REC-SVG-20010904/DTD/svg10.dtd">
<svg version="1.0" xmlns="http://www.w3.org/2000/svg"
 width="70.000000px" height="60.000000px" viewBox="0 0 512.000000 512.000000"
 preserveAspectRatio="xMidYMid meet">

<g transform="translate(0.000000,512.000000) scale(0.100000,-0.100000)"
fill="#fff" stroke="none">
<path d="M1409 4227 c-36 -28 -39 -51 -39 -324 l0 -269 -222 -179 c-123 -99
-233 -190 -245 -202 l-23 -22 0 -1151 0 -1151 25 -24 24 -25 1631 0 1631 0 24
25 25 24 0 1152 0 1151 -29 27 c-16 15 -126 105 -245 201 l-216 174 0 269 c0
273 -3 296 -39 324 -23 18 -2279 18 -2302 0z m2181 -777 l0 -629 -394 -336
c-217 -184 -398 -335 -401 -335 -4 0 -49 34 -102 75 -52 41 -105 78 -118 81
-30 7 -52 -5 -156 -87 -48 -38 -90 -69 -93 -69 -4 0 -184 151 -401 336 l-395
335 0 630 0 629 1030 0 1030 0 0 -630z m440 -251 c0 -4 -183 -163 -257 -222
l-23 -18 0 235 0 236 140 -113 c76 -61 139 -115 140 -118z m-2660 -10 l0 -231
-58 49 c-144 121 -222 188 -221 193 0 7 262 219 272 219 4 1 7 -103 7 -230z
m258 -661 c309 -264 562 -482 562 -486 -1 -6 -1069 -856 -1129 -899 l-21 -14
0 946 c0 754 3 945 13 939 6 -5 265 -223 575 -486z m2450 -929 l-3 -469 -572
452 c-315 249 -572 456 -573 460 0 4 258 226 573 494 l572 486 3 -477 c1 -262
1 -688 0 -946z m-825 -21 l671 -533 -682 -3 c-375 -1 -989 -1 -1364 0 l-682 3
679 538 c398 315 684 536 692 533 8 -3 316 -245 686 -538z"/>
<path d="M2455 3830 c-182 -39 -333 -152 -413 -309 -54 -104 -67 -160 -67
-276 0 -117 13 -172 67 -277 70 -137 195 -239 358 -294 85 -29 252 -26 349 5
93 31 134 65 134 111 0 24 -7 40 -27 57 -34 29 -45 29 -125 -4 -90 -37 -226
-39 -316 -5 -115 43 -212 139 -257 252 -17 44 -22 76 -22 155 0 116 20 178 82
260 197 259 595 220 739 -73 40 -81 40 -177 0 -244 -61 -104 -109 -63 -148
128 -10 52 -26 108 -34 124 -35 68 -148 117 -238 104 -59 -9 -151 -60 -193
-107 -58 -63 -89 -140 -88 -217 1 -75 18 -121 64 -174 91 -104 249 -107 363
-7 l36 32 32 -36 c43 -48 78 -65 139 -65 92 0 175 65 229 179 23 49 26 68 25
156 0 80 -5 111 -22 153 -71 171 -198 290 -379 353 -65 23 -223 34 -288 19z
m172 -462 c30 -25 2 -152 -43 -199 -63 -65 -142 -56 -165 20 -15 51 0 96 50
145 54 53 119 67 158 34z"/>
</g>
</svg>
